PathFileType	4	(X/Y/Z)	pose_F01_0-65.trc
DataRate	CameraRate	NumFrames	NumMarkers	Units	OrigDataRate	OrigDataStartFrame	OrigNumFrames
30	30	7	21	m	30	10	65
Frame#	Time	CHip			RHip			RKnee			RAnkle			RBigToe			RSmallToe			RHeel			LHip			LKnee			LAnkle			LBigToe			LSmallToe			LHeel			Neck			Nose			RShoulder			RElbow			RWrist			LShoulder			LElbow			LWrist			
		X1	Y1	Z1	X2	Y2	Z2	X3	Y3	Z3	X4	Y4	Z4	X5	Y5	Z5	X6	Y6	Z6	X7	Y7	Z7	X8	Y8	Z8	X9	Y9	Z9	X10	Y10	Z10	X11	Y11	Z11	X12	Y12	Z12	X13	Y13	Z13	X14	Y14	Z14	X15	Y15	Z15	X16	Y16	Z16	X17	Y17	Z17	X18	Y18	Z18	X19	Y19	Z19	X20	Y20	Z20	X21	Y21	Z21	
10	0.3333333333333333	-0.24900817063709266	1.8238746355303146	-0.486409621483133	-0.26522486532676215	1.8218227405632188	-0.4186475998073627	-0.2986594863376571	1.7047998933755084	-0.4918292618211539	-0.5098966264086664	1.5741556371260288	-1.0851409937197658	-0.5678911029948313	1.5532928402829176	-1.23825111304939	-0.5859414310925272	1.5603427942711092	-1.2203756500684597	-0.49769836747544965	1.567638672909994	-1.068829883741299	-0.23438375327879296	1.8265876407857795	-0.5466161236499838	-0.23788561942367506	1.7057039433682253	-0.5567175568579286	-0.24874426977789557	1.6109874013768	-0.4284643516778206	-0.25057695076631215	1.5614486880116056	-0.4108154771416426	-0.23839003283671067	1.5657565420905037	-0.43391038924803405	-0.2162985709756122	1.6002920729822168	-0.45994948431256955	-0.24663440406079082	1.979737201780963	-0.5122569377329023	-0.28101164549969226	2.021726993719777	-0.5359172227263955	-0.26787032988409293	1.9752141189712469	-0.41897072542038016	-0.27498212131518596	1.891496997611341	-0.36617528170924474	-0.2833692422450168	1.815540539783057	-0.3606266964614906	-0.2225814800263247	1.9833457700481678	-0.6056468635381079	-0.21236189813693873	1.9040673358724822	-0.6200163716636943	-0.2141005063756053	1.8288335747922284	-0.6284282201424448
11	0.36666666666666664	-0.2520791337624142	1.8273040881534561	-0.4965308962978962	-0.2694766169774131	1.8225872468646318	-0.4321988735522743	-0.2986594863376571	1.7047998933755084	-0.4918292618211539	-0.5098966264086664	1.5741556371260288	-1.0851409937197658	-0.5678911029948313	1.5532928402829176	-1.23825111304939	-0.5859414310925272	1.5603427942711092	-1.2203756500684597	-0.49769836747544965	1.567638672909994	-1.068829883741299	-0.23899260157275748	1.830879779532909	-0.5633109882650523	-0.24103504372723633	1.7050381059159976	-0.5543094405082692	-0.24874426977789557	1.6109874013768	-0.4284643516778206	-0.25057695076631215	1.5614486880116056	-0.4108154771416426	-0.23839003283671067	1.5657565420905037	-0.43391038924803405	-0.21914660071379677	1.6011027728194442	-0.45542011920122755	-0.25140325553848636	1.9825439174716863	-0.5195235573482023	-0.2830173321926601	2.0246655496215524	-0.542516469440857	-1.7907543503543983	1.8887464283866948	1.241673162452862	-0.28443737656910906	1.891785498929042	-0.3787206344344391	-0.2899799991566347	1.8161527598307434	-0.3648446120321138	-0.22457508493438252	1.9863949267025653	-0.6037617807120608	-0.2113689441072518	1.9054440308894978	-0.6168965559282832	-0.21472565879822975	1.8300799367457559	-0.6319201866938724
12	0.4	-0.2568423672885536	1.8308197271593418	-0.5135255518248979	-0.2747765003856468	1.8274783104129684	-0.4492247236739142	-0.2986594863376571	1.7047998933755084	-0.4918292618211539	-0.5098966264086664	1.5741556371260288	-1.0851409937197658	-0.5678911029948313	1.5532928402829176	-1.23825111304939	-0.5859414310925272	1.5603427942711092	-1.2203756500684597	-0.49769836747544965	1.567638672909994	-1.068829883741299	-0.23863710124068668	1.830919834882739	-0.5722295732034345	-0.2441844680307976	1.7043722684637699	-0.5519013241586098	-0.24874426977789557	1.6109874013768	-0.4284643516778206	-0.25057695076631215	1.5614486880116056	-0.4108154771416426	-0.23839003283671067	1.5657565420905037	-0.43391038924803405	-0.22199463045198137	1.6019134726566717	-0.45089075408988555	-0.25521776825918535	1.98363424974503	-0.5322280171336944	-0.2788123968432644	2.026903768999182	-0.5468815497675206	-0.2789326912993983	1.9800677852402107	-0.43767976966676286	-0.28729518636475787	1.8921645486616747	-0.38003679108758903	-0.2965907560682526	1.8167649798784296	-0.3690625276027371	-0.2270584532704249	1.9863347165618161	-0.6211714548029551	-0.21563018527941835	1.9081089444731927	-0.6332468916859108	-0.21284389101251555	1.836806946897246	-0.6467571963885628
13	0.43333333333333335	-0.256959817592218	1.8295541574470366	-0.5138154584367574	-0.2749357399637981	1.8296803313940662	-0.4499841600697289	-0.2986594863376571	1.7047998933755084	-0.4918292618211539	-0.5098966264086664	1.5741556371260288	-1.0851409937197658	-0.5678911029948313	1.5532928402829176	-1.23825111304939	-0.5859414310925272	1.5603427942711092	-1.2203756500684597	-0.49769836747544965	1.567638672909994	-1.068829883741299	-0.24105508950986054	1.830148290105988	-0.5701785540439043	-0.24733389233435887	1.703706431011542	-0.5494932078089505	-0.24874426977789557	1.6109874013768	-0.4284643516778206	-0.25057695076631215	1.5614486880116056	-0.4108154771416426	-0.23839003283671067	1.5657565420905037	-0.43391038924803405	-0.22484266019016597	1.6027241724938994	-0.4463613889785436	-0.25229986142296346	1.9830776577338203	-0.5397294331250668	-0.27664812420004586	2.028278507074101	-0.5488509259099688	-1.7693373589063848	1.8885851302796302	1.2045197415049729	-0.28430128056794574	1.895278877150961	-0.3794241488199854	-0.2928569183698607	1.8173124190735912	-0.3502912342682419	-0.2274820016060213	1.9847855458091304	-0.6326272812654959	-0.21567593216031405	1.9075038446639498	-0.6535631585498933	-0.2099156723461665	1.8317381077948205	-0.6694556521181422
14	0.4666666666666667	-0.257837279955087	1.8310462473762061	-0.5137253893626175	-0.2767584211354982	1.833848945409457	-0.4534557982220566	-0.3153278086664148	1.7282228225223895	-0.5079310679401301	-0.2852641586709868	1.5994259955851917	-0.3900052099100851	-0.5678911029948313	1.5532928402829176	-1.23825111304939	-0.5859414310925272	1.5603427942711092	-1.2203756500684597	-0.27807584403870533	1.5951258062478768	-0.3832830320005208	-0.23984018456699305	1.8298335496685565	-0.572045955234931	-0.2504833166379201	1.7030405935593143	-0.5470850914592911	-0.24874426977789557	1.6109874013768	-0.4284643516778206	-0.25057695076631215	1.5614486880116056	-0.4108154771416426	-0.23839003283671067	1.5657565420905037	-0.43391038924803405	-0.22769068992835056	1.603534872331127	-0.4418320238672016	-0.24612547214140615	1.9827147016974196	-0.5466403552570726	-0.27471822767765247	2.0301785304900073	-0.5519896088428461	-0.26819041965995916	1.9817492729397879	-0.4538953013210435	-0.28058211861386123	1.896252867497578	-0.3839216659736626	-0.2891230806714689	1.8178598582687528	-0.33151994093374665	-0.22123954813845678	1.9858014002443813	-0.6397890892677941	-0.2098747919069224	1.9082845797820198	-0.6723923217783638	-0.2113834808934382	1.8316113810688706	-0.6893621078078439
15	0.5	-0.2584304811643958	1.8437987608206095	-0.5187705627070749	-0.2753760590383644	1.8438072067718776	-0.46064610559773006	-0.3174380057701838	1.7523845615824813	-0.5081297479561506	-0.2852641586709868	1.5994259955851917	-0.3900052099100851	-0.5678911029948313	1.5532928402829176	-1.23825111304939	-0.5859414310925272	1.5603427942711092	-1.2203756500684597	-0.27807584403870533	1.5951258062478768	-0.3832830320005208	-0.24031497481444358	1.8413307878791594	-0.5850641757578738	-0.2536327409414814	1.7023747561070866	-0.5446769751096318	-0.24874426977789557	1.6109874013768	-0.4284643516778206	-0.25057695076631215	1.5614486880116056	-0.4108154771416426	-0.23839003283671067	1.5657565420905037	-0.43391038924803405	-0.23053871966653516	1.6043455721683544	-0.4373026587558596	-0.24400996144225598	1.9845053408537823	-0.5576901840095989	-0.2708119636772245	2.0334028193902736	-0.5577515451794413	-0.2673529068389347	1.982454006637244	-0.45971191368684006	-0.27583926625952165	1.9027965981058546	-0.3858903953302334	-0.28442799399577606	1.822853720798426	-0.30453049194478926	-0.21968899766584407	1.986628260772019	-0.6536826079202736	-0.20437305165421768	1.9045660822952108	-0.6824094167356682	-0.20314790771885544	1.8300647350378516	-0.7103794313428088
16	0.5333333333333333	-0.2605175225157031	1.8482722452561797	-0.5344583161805175	-0.27545943658936783	1.853838000713718	-0.47067026283802743	-0.33186835573323437	1.7573356871525525	-0.4909577982906821	-0.2852641586709868	1.5994259955851917	-0.3900052099100851	-0.5678911029948313	1.5532928402829176	-1.23825111304939	-0.5859414310925272	1.5603427942711092	-1.2203756500684597	-0.27807584403870533	1.5951258062478768	-0.3832830320005208	-0.24211780643312225	1.8450276591022658	-0.6008687746848832	-0.262019944158371	1.707373850011087	-0.5659966468967738	-0.24874426977789557	1.6109874013768	-0.4284643516778206	-0.25057695076631215	1.5614486880116056	-0.4108154771416426	-0.23839003283671067	1.5657565420905037	-0.43391038924803405	-0.23338674940471976	1.6051562720055819	-0.43277329364451766	-0.24179521500636017	1.9859328199412214	-0.5684501998759472	-0.26649065753918977	2.0364423879626723	-0.5619515970430199	-0.264621077875217	1.9847515097236854	-0.47619958409202834	-0.2760692016249401	1.907950587883081	-0.3958019996056364	-0.2825344652684738	1.8318826541952091	-0.3078772258096548	-0.2162700754563853	1.986843493487273	-0.6612274808214578	-0.20316218652580012	1.9041969183421323	-0.6878179719825653	-0.2003457766858978	1.830758387280699	-0.7212574809043363
